# xmcd
#
# Track frame offsets:
#	150
#	30650
#	53362
#	61532
#	89490
#	101882
#	126777
#	146057
#	162287
#
# Disc length: 2553 seconds
#
# Revision: 12
# Processed by: cddbd v1.5.2PL0 Copyright (c) Steve Scherf et al.
# Submitted via: audiograbber 1.83.01
#
DISCID=7109f709
DTITLE=The Waterboys - This Is The Sea
DYEAR=1985
DGENRE=Rock
TTITLE0=Don't Bang The Drum
TTITLE1=The Whole Of The Moon
TTITLE2=Spirit
TTITLE3=The Pan Within
TTITLE4=Medicine Bow
TTITLE5=Old England
TTITLE6=Be My Enemy
TTITLE7=Trumpets
TTITLE8=This Is The Sea
EXTD=YEAR: 1985
EXTT0=
EXTT1=
EXTT2=
EXTT3=
EXTT4=
EXTT5=
EXTT6=
EXTT7=
EXTT8=
PLAYORDER=
